<svg width="183" height="24" viewBox="0 0 183 24" fill="none" xmlns="http://www.w3.org/2000/svg">
<g id="Group 1">
<path id="Vector" d="M0 24V18.227L12.1297 12.1297V11.8703L0 5.77297V1.98467e-07L22.1405 0V4.54054H7.72973V4.72432L19.2865 10.4541V13.5459L13.4811 16.4108L7.67568 19.2757V19.4595L22.1405 19.4595V24H0Z" fill="white"/>
<g id="Vector_2">
<path d="M30.4414 18.7093V5.15104H32.4967V7.26951H32.677C32.9654 6.5457 33.4312 5.98371 34.0742 5.58356C34.7172 5.17752 35.4894 4.9745 36.3909 4.9745C37.3043 4.9745 38.0645 5.17752 38.6715 5.58356C39.2845 5.98371 39.7622 6.5457 40.1048 7.26951H40.249C40.6036 6.56924 41.1354 6.01314 41.8446 5.60121C42.5537 5.1834 43.404 4.9745 44.3956 4.9745C45.6336 4.9745 46.6462 5.35406 47.4334 6.11318C48.2207 6.86641 48.6143 8.0404 48.6143 9.63514V18.7093H46.4869V9.63514C46.4869 8.63475 46.2075 7.91976 45.6486 7.49018C45.0897 7.0606 44.4317 6.84581 43.6745 6.84581C42.7009 6.84581 41.9467 7.13416 41.4119 7.71086C40.877 8.28167 40.6096 9.00548 40.6096 9.88229V18.7093H38.4461V9.42329C38.4461 8.6524 38.1907 8.03157 37.6799 7.5608C37.1691 7.08414 36.5111 6.84581 35.7058 6.84581C35.1529 6.84581 34.6361 6.98999 34.1553 7.27834C33.6806 7.56668 33.296 7.96684 33.0015 8.4788C32.713 8.98488 32.5688 9.57041 32.5688 10.2354V18.7093H30.4414Z" fill="white"/>
<path d="M56.5785 19.027C55.7011 19.027 54.9048 18.8652 54.1897 18.5416C53.4746 18.212 52.9067 17.7383 52.486 17.1204C52.0653 16.4966 51.855 15.7434 51.855 14.8607C51.855 14.0839 52.0112 13.4543 52.3237 12.9717C52.6362 12.4833 53.0539 12.1008 53.5767 11.8242C54.0996 11.5476 54.6765 11.3417 55.3075 11.2063C55.9445 11.0651 56.5845 10.9533 57.2275 10.8709C58.0689 10.765 58.751 10.6855 59.2738 10.6326C59.8026 10.5737 60.1872 10.4766 60.4276 10.3413C60.674 10.2059 60.7972 9.97056 60.7972 9.63514V9.56452C60.7972 8.69359 60.5538 8.01686 60.0671 7.53432C59.5863 7.05178 58.8561 6.81051 57.8766 6.81051C56.8609 6.81051 56.0647 7.02824 55.4878 7.4637C54.9108 7.89917 54.5052 8.36405 54.2708 8.85836L52.2516 8.15221C52.6122 7.32835 53.093 6.68693 53.6939 6.22793C54.3009 5.76304 54.9619 5.43938 55.6771 5.25696C56.3982 5.06865 57.1073 4.9745 57.8044 4.9745C58.2492 4.9745 58.76 5.02746 59.3369 5.13338C59.9198 5.23342 60.4817 5.44232 61.0226 5.7601C61.5694 6.07787 62.0232 6.55747 62.3837 7.19889C62.7443 7.84032 62.9246 8.69948 62.9246 9.77637V18.7093H60.7972V16.8733H60.689C60.5448 17.1675 60.3044 17.4823 59.9679 17.8177C59.6314 18.1532 59.1836 18.4386 58.6248 18.674C58.0659 18.9093 57.3838 19.027 56.5785 19.027ZM56.903 17.1557C57.7444 17.1557 58.4535 16.9939 59.0304 16.6702C59.6133 16.3466 60.052 15.9288 60.3465 15.4168C60.647 14.9048 60.7972 14.3664 60.7972 13.8015V11.8948C60.7071 12.0008 60.5088 12.0979 60.2023 12.1861C59.9018 12.2685 59.5532 12.3421 59.1566 12.4068C58.766 12.4657 58.3844 12.5186 58.0118 12.5657C57.6452 12.6069 57.3477 12.6422 57.1194 12.6716C56.5665 12.7422 56.0497 12.857 55.5689 13.0159C55.0941 13.1689 54.7095 13.4013 54.4151 13.7132C54.1266 14.0192 53.9824 14.437 53.9824 14.9666C53.9824 15.6904 54.2558 16.2377 54.8027 16.6084C55.3556 16.9733 56.0557 17.1557 56.903 17.1557Z" fill="white"/>
<path d="M68.9349 10.5531V18.7093H66.8075V5.15104H68.8628V7.26951H69.0431C69.3676 6.581 69.8604 6.02785 70.5214 5.61004C71.1825 5.18634 72.0358 4.9745 73.0815 4.9745C74.019 4.9745 74.8393 5.1628 75.5424 5.53942C76.2455 5.91016 76.7924 6.47508 77.183 7.2342C77.5737 7.98744 77.769 8.94075 77.769 10.0941V18.7093H75.6416V10.2354C75.6416 9.17025 75.3591 8.34051 74.7942 7.74616C74.2293 7.14593 73.4541 6.84581 72.4685 6.84581C71.7895 6.84581 71.1825 6.98999 70.6476 7.27834C70.1188 7.56668 69.7011 7.98744 69.3946 8.54059C69.0882 9.09375 68.9349 9.7646 68.9349 10.5531Z" fill="white"/>
<path d="M90.3823 13.1659V5.15104H92.5097V18.7093H90.3823V16.4142H90.2381C89.9135 17.1028 89.4087 17.6883 88.7237 18.1708C88.0386 18.6475 87.1732 18.8858 86.1275 18.8858C85.2621 18.8858 84.4929 18.7004 83.8198 18.3297C83.1468 17.9531 82.6179 17.3882 82.2333 16.6349C81.8487 15.8758 81.6564 14.9196 81.6564 13.7662V5.15104H83.7838V13.6249C83.7838 14.6135 84.0662 15.4021 84.6311 15.9906C85.2021 16.579 85.9292 16.8733 86.8126 16.8733C87.3415 16.8733 87.8793 16.7408 88.4262 16.476C88.9791 16.2112 89.4418 15.8052 89.8144 15.2579C90.193 14.7106 90.3823 14.0133 90.3823 13.1659Z" fill="white"/>
<path d="M107.728 5.15104L102.608 18.7093H100.445L95.3244 5.15104H97.6321L101.454 15.9552H101.598L105.42 5.15104H107.728Z" fill="white"/>
<path d="M114.189 19.027C113.312 19.027 112.516 18.8652 111.8 18.5416C111.085 18.212 110.517 17.7383 110.097 17.1204C109.676 16.4966 109.466 15.7434 109.466 14.8607C109.466 14.0839 109.622 13.4543 109.934 12.9717C110.247 12.4833 110.665 12.1008 111.187 11.8242C111.71 11.5476 112.287 11.3417 112.918 11.2063C113.555 11.0651 114.195 10.9533 114.838 10.8709C115.68 10.765 116.362 10.6855 116.884 10.6326C117.413 10.5737 117.798 10.4766 118.038 10.3413C118.285 10.2059 118.408 9.97056 118.408 9.63514V9.56452C118.408 8.69359 118.165 8.01686 117.678 7.53432C117.197 7.05178 116.467 6.81051 115.487 6.81051C114.472 6.81051 113.675 7.02824 113.098 7.4637C112.522 7.89917 112.116 8.36405 111.882 8.85836L109.862 8.15221C110.223 7.32835 110.704 6.68693 111.305 6.22793C111.912 5.76304 112.573 5.43938 113.288 5.25696C114.009 5.06865 114.718 4.9745 115.415 4.9745C115.86 4.9745 116.371 5.02746 116.948 5.13338C117.53 5.23342 118.092 5.44232 118.633 5.7601C119.18 6.07787 119.634 6.55747 119.994 7.19889C120.355 7.84032 120.535 8.69948 120.535 9.77637V18.7093H118.408V16.8733H118.3C118.155 17.1675 117.915 17.4823 117.579 17.8177C117.242 18.1532 116.794 18.4386 116.235 18.674C115.677 18.9093 114.994 19.027 114.189 19.027ZM114.514 17.1557C115.355 17.1557 116.064 16.9939 116.641 16.6702C117.224 16.3466 117.663 15.9288 117.957 15.4168C118.258 14.9048 118.408 14.3664 118.408 13.8015V11.8948C118.318 12.0008 118.119 12.0979 117.813 12.1861C117.512 12.2685 117.164 12.3421 116.767 12.4068C116.377 12.4657 115.995 12.5186 115.622 12.5657C115.256 12.6069 114.958 12.6422 114.73 12.6716C114.177 12.7422 113.66 12.857 113.18 13.0159C112.705 13.1689 112.32 13.4013 112.026 13.7132C111.737 14.0192 111.593 14.437 111.593 14.9666C111.593 15.6904 111.866 16.2377 112.413 16.6084C112.966 16.9733 113.666 17.1557 114.514 17.1557Z" fill="white"/>
<path d="M126.546 10.5531V18.7093H124.418V5.15104H126.473V7.26951H126.654C126.978 6.581 127.471 6.02785 128.132 5.61004C128.793 5.18634 129.647 4.9745 130.692 4.9745C131.63 4.9745 132.45 5.1628 133.153 5.53942C133.856 5.91016 134.403 6.47508 134.794 7.2342C135.184 7.98744 135.38 8.94075 135.38 10.0941V18.7093H133.252V10.2354C133.252 9.17025 132.97 8.34051 132.405 7.74616C131.84 7.14593 131.065 6.84581 130.079 6.84581C129.4 6.84581 128.793 6.98999 128.258 7.27834C127.729 7.56668 127.312 7.98744 127.005 8.54059C126.699 9.09375 126.546 9.7646 126.546 10.5531Z" fill="white"/>
<path d="M145.289 5.15104V6.91643H138.113V5.15104H145.289ZM140.205 1.90271H142.332V14.8254C142.332 15.4139 142.419 15.8552 142.593 16.1494C142.774 16.4378 143.002 16.632 143.278 16.732C143.561 16.8262 143.858 16.8733 144.171 16.8733C144.405 16.8733 144.598 16.8615 144.748 16.8379C144.898 16.8085 145.018 16.785 145.108 16.7673L145.541 18.6386C145.397 18.6916 145.196 18.7446 144.937 18.7975C144.679 18.8564 144.351 18.8858 143.955 18.8858C143.354 18.8858 142.765 18.7593 142.188 18.5062C141.617 18.2532 141.142 17.8678 140.763 17.3499C140.391 16.8321 140.205 16.1789 140.205 15.3903V1.90271Z" fill="white"/>
<path d="M152.563 19.027C151.686 19.027 150.89 18.8652 150.174 18.5416C149.459 18.212 148.891 17.7383 148.471 17.1204C148.05 16.4966 147.84 15.7434 147.84 14.8607C147.84 14.0839 147.996 13.4543 148.308 12.9717C148.621 12.4833 149.039 12.1008 149.561 11.8242C150.084 11.5476 150.661 11.3417 151.292 11.2063C151.929 11.0651 152.569 10.9533 153.212 10.8709C154.054 10.765 154.736 10.6855 155.259 10.6326C155.787 10.5737 156.172 10.4766 156.412 10.3413C156.659 10.2059 156.782 9.97056 156.782 9.63514V9.56452C156.782 8.69359 156.539 8.01686 156.052 7.53432C155.571 7.05178 154.841 6.81051 153.861 6.81051C152.846 6.81051 152.049 7.02824 151.473 7.4637C150.896 7.89917 150.49 8.36405 150.256 8.85836L148.236 8.15221C148.597 7.32835 149.078 6.68693 149.679 6.22793C150.286 5.76304 150.947 5.43938 151.662 5.25696C152.383 5.06865 153.092 4.9745 153.789 4.9745C154.234 4.9745 154.745 5.02746 155.322 5.13338C155.905 5.23342 156.466 5.44232 157.007 5.7601C157.554 6.07787 158.008 6.55747 158.368 7.19889C158.729 7.84032 158.909 8.69948 158.909 9.77637V18.7093H156.782V16.8733H156.674C156.53 17.1675 156.289 17.4823 155.953 17.8177C155.616 18.1532 155.168 18.4386 154.61 18.674C154.051 18.9093 153.369 19.027 152.563 19.027ZM152.888 17.1557C153.729 17.1557 154.438 16.9939 155.015 16.6702C155.598 16.3466 156.037 15.9288 156.331 15.4168C156.632 14.9048 156.782 14.3664 156.782 13.8015V11.8948C156.692 12.0008 156.493 12.0979 156.187 12.1861C155.887 12.2685 155.538 12.3421 155.141 12.4068C154.751 12.4657 154.369 12.5186 153.997 12.5657C153.63 12.6069 153.332 12.6422 153.104 12.6716C152.551 12.7422 152.034 12.857 151.554 13.0159C151.079 13.1689 150.694 13.4013 150.4 13.7132C150.111 14.0192 149.967 14.437 149.967 14.9666C149.967 15.6904 150.241 16.2377 150.787 16.6084C151.34 16.9733 152.04 17.1557 152.888 17.1557Z" fill="white"/>
<path d="M162.792 18.7093V5.15104H164.848V7.19889H164.992C165.244 6.52804 165.701 5.98371 166.362 5.5659C167.023 5.14809 167.768 4.93919 168.598 4.93919C168.754 4.93919 168.949 4.94213 169.183 4.94801C169.418 4.9539 169.595 4.96273 169.715 4.9745V7.09297C169.643 7.07531 169.478 7.04883 169.219 7.01353C168.967 6.97233 168.7 6.95174 168.417 6.95174C167.744 6.95174 167.143 7.09003 166.614 7.3666C166.092 7.6373 165.677 8.01392 165.37 8.49646C165.07 8.97311 164.92 9.51744 164.92 10.1294V18.7093H162.792Z" fill="white"/>
<path d="M176.312 19.027C175.434 19.027 174.638 18.8652 173.923 18.5416C173.208 18.212 172.64 17.7383 172.219 17.1204C171.798 16.4966 171.588 15.7434 171.588 14.8607C171.588 14.0839 171.744 13.4543 172.057 12.9717C172.369 12.4833 172.787 12.1008 173.31 11.8242C173.833 11.5476 174.41 11.3417 175.041 11.2063C175.678 11.0651 176.318 10.9533 176.961 10.8709C177.802 10.765 178.484 10.6855 179.007 10.6326C179.536 10.5737 179.92 10.4766 180.161 10.3413C180.407 10.2059 180.53 9.97056 180.53 9.63514V9.56452C180.53 8.69359 180.287 8.01686 179.8 7.53432C179.319 7.05178 178.589 6.81051 177.61 6.81051C176.594 6.81051 175.798 7.02824 175.221 7.4637C174.644 7.89917 174.238 8.36405 174.004 8.85836L171.985 8.15221C172.345 7.32835 172.826 6.68693 173.427 6.22793C174.034 5.76304 174.695 5.43938 175.41 5.25696C176.131 5.06865 176.84 4.9745 177.537 4.9745C177.982 4.9745 178.493 5.02746 179.07 5.13338C179.653 5.23342 180.215 5.44232 180.756 5.7601C181.302 6.07787 181.756 6.55747 182.117 7.19889C182.477 7.84032 182.658 8.69948 182.658 9.77637V18.7093H180.53V16.8733H180.422C180.278 17.1675 180.037 17.4823 179.701 17.8177C179.364 18.1532 178.917 18.4386 178.358 18.674C177.799 18.9093 177.117 19.027 176.312 19.027ZM176.636 17.1557C177.477 17.1557 178.187 16.9939 178.763 16.6702C179.346 16.3466 179.785 15.9288 180.08 15.4168C180.38 14.9048 180.53 14.3664 180.53 13.8015V11.8948C180.44 12.0008 180.242 12.0979 179.935 12.1861C179.635 12.2685 179.286 12.3421 178.89 12.4068C178.499 12.4657 178.117 12.5186 177.745 12.5657C177.378 12.6069 177.081 12.6422 176.852 12.6716C176.3 12.7422 175.783 12.857 175.302 13.0159C174.827 13.1689 174.443 13.4013 174.148 13.7132C173.86 14.0192 173.715 14.437 173.715 14.9666C173.715 15.6904 173.989 16.2377 174.536 16.6084C175.089 16.9733 175.789 17.1557 176.636 17.1557Z" fill="white"/>
</g>
</g>
</svg>
